PathFileType	4	(X/Y/Z)	C:/Users/beibeiliu/ov580/test_trc\sequence.11_training_dense_right.trc
DataRate	CameraRate	NumFrames	NumMarkers	Units	OrigDataRate	OrigDataStartFrame	OrigNumFrames
120	120	12	19	mm	120	349	398
Frame#	Time	ThumbCMC			ThumbMCP			ThumbIP			ThumbTip			IndexMCP			IndexPIP			IndexTip			MiddleMCP			MiddlePIP			MiddleTip			RingMCP			RingPIP			RingTip			PinkyMCP			PinkyPIP			PinkyTip			BackHand1			BackHand2			BackHand3	
		X0	Y0	Z0	X1	Y1	Z1	X2	Y2	Z2	X3	Y3	Z3	X4	Y4	Z4	X5	Y5	Z5	X6	Y6	Z6	X7	Y7	Z7	X8	Y8	Z8	X9	Y9	Z9	X10	Y10	Z10	X11	Y11	Z11	X12	Y12	Z12	X13	Y13	Z13	X14	Y14	Z14	X15	Y15	Z15	X16	Y16	Z16	X17	Y17	Z17	X18	Y18	Z18	
348	2.9	185.839	30.3749	8.93953	168.078	31.5166	-10.5441	161.291	25.1892	-32.1973	151.485	26.9137	-43.8933	172.284	-14.9461	-38.9642	151.585	-24.2062	-24.4479	156.98	-3.92661	-0.498449	178.947	-31.3759	-28.2647	153.438	-31.7207	-9.83331	165.584	-12.8868	10.5446	179.653	-40.1227	-16.8914	162.623	-34.3052	5.20699	176.799	-10.387	14.5613	188.711	-46.8213	-3.37294	171.652	-39.9104	9.72249	184.767	-15.6213	18.191	218.842	-11.1134	-1.80257	224.984	5.2729	21.4282	212.012	15.7598	0.216707	
349	2.90833	194.586	26.2493	8.41686	175.781	28.5072	-13.9406	166.026	26.3298	-30.7981	156.549	30.9683	-46.2148	170.464	-17.4667	-38.3967	145.858	-21.9657	-20.8508	159.84	-6.30706	0.124765	169.632	-33.9489	-28.9787	148.203	-33.6549	-10.1434	163.19	-13.1089	10.9785	174.488	-44.197	-13.2468	155.945	-34.8648	2.13048	172.991	-16.122	18.0547	182.116	-50.3997	-0.623946	164.165	-40.4052	11.81	178.222	-19.4588	19.9479	216.349	-23.1646	-1.71779	227.463	-10.8103	21.7654	214.416	7.30714	-1.99894	
350	2.91667	199.983	20.8813	4.62043	183.642	23.6932	-13.8328	172.772	22.8612	-32.1308	164.23	31.3554	-47.8778	167.591	-17.9385	-38.0719	143.021	-17.971	-25.4135	157.943	-5.23804	-0.422752	164.958	-36.2577	-26.5349	142.464	-29.5503	-10.1812	161.544	-15.0966	13.0968	168.114	-45.2523	-11.4951	150.211	-32.1176	9.11907	170.258	-14.4365	15.7992	171.658	-53.1554	3.30097	159.202	-40.7793	17.8316	177.106	-19.4691	21.8038	214.919	-34.0469	1.35773	229.405	-20.2493	24.0314	219.313	-4.83111	-1.45627	
351	2.925	205.04	15.2422	6.48743	188.985	20.0688	-11.0857	179.311	24.9781	-31.952	169.851	25.1414	-49.2584	168.724	-22.6019	-35.0908	142.786	-18.3961	-19.2737	156.957	-5.00657	-1.33061	164.973	-38.5217	-24.3524	139.741	-28.4203	-9.77878	159.149	-12.745	12.3778	163.641	-47.2003	-8.70934	147.977	-30.7647	9.48679	167.244	-19.2319	21.7236	170.267	-54.9478	6.00676	156.287	-37.4698	18.1792	177.771	-21.2439	24.7981	209.561	-38.2758	1.55805	229.466	-26.163	22.9278	218.067	-12.9077	-2.914	
352	2.93333	208.617	12.7522	3.82199	193.573	20.2321	-11.2325	182.812	21.3162	-33.7483	175.697	26.4611	-44.0121	168.026	-21.1096	-35.8505	142.115	-18.9098	-22.7904	156.904	-5.65901	0.164183	158.472	-37.4578	-22.8594	139.15	-25.0712	-7.09587	162.334	-9.25326	12.3548	162.286	-47.956	-6.43158	146.152	-31.9373	8.11056	170.385	-15.6031	19.3458	167.64	-56.544	8.4475	153.789	-36.8085	18.0677	175.992	-21.8477	22.4861	210.518	-45.0196	7.07236	227.223	-31.8018	26.0805	218.106	-14.4089	-3.41201	
353	2.94167	212.18	12.6483	8.40266	195.872	17.326	-14.1622	185.233	19.6549	-32.4505	179.329	28.9794	-47.21	167.355	-24.3427	-32.4838	141.783	-14.7888	-21.8875	158.975	-6.28896	2.47517	160.549	-37.7891	-20.4955	138.303	-28.8887	-3.37432	163.105	-13.9561	16.6725	158.303	-48.4513	-4.3829	147.545	-26.9317	12.148	167.983	-17.6067	21.542	165.017	-56.4069	10.5014	152.815	-37.7929	18.155	175.453	-23.0683	23.3632	210.411	-44.4917	7.92532	226.401	-33.9832	20.5615	221.022	-17.9247	3.03588	
354	2.95	213.814	12.225	8.56529	199.417	19.2738	-8.64284	188.986	21.078	-28.2539	184.321	31.2019	-42.5244	164.011	-20.1287	-32.628	142.755	-13.237	-15.6569	157.892	-3.03353	5.03393	156.455	-34.8495	-20.0823	138.873	-25.3447	-0.787116	165.559	-10.1535	17.989	160.579	-45.9342	-3.76276	147.314	-28.4898	15.8991	172.351	-16.8591	24.7117	161.505	-54.0106	11.0134	153.269	-36.747	23.7629	176.452	-24.0303	26.3469	208.455	-46.8804	9.07071	225.835	-33.4347	22.1302	221.601	-19.6588	4.00801	
355	2.95833	216.04	11.9329	11.9457	200.628	19.5605	-11.5463	193.425	23.6761	-26.0222	186.577	30.7807	-43.3767	164.772	-20.4336	-28.4714	142.16	-7.28496	-12.4786	162.671	-1.69718	8.80327	160.155	-35.3612	-17.1753	138.844	-23.04	1.19852	163.774	-8.02942	19.0194	156.668	-43.4408	-1.60102	148.544	-23.3255	15.4322	174.982	-15.8902	25.4167	161.017	-51.5578	11.1096	154.449	-36.2983	24.3999	176.774	-22.8254	28.492	206.915	-46.7156	5.74245	226.539	-36.0931	23.4496	220.405	-18.8237	2.1585	
356	2.96667	215.922	11.8564	10.2129	201.775	19.2478	-9.95983	193.022	22.7618	-26.6334	189.896	33.5496	-40.2153	163.441	-17.7246	-28.3592	143.803	-10.5435	-12.8647	161.321	0.0276163	9.15577	155.657	-32.9434	-17.035	140.88	-18.8154	3.86391	167.286	-8.62453	19.3368	158.111	-41.8889	-1.98412	150.304	-24.5702	18.3799	172.453	-16.6032	28.3249	164.242	-54.2841	14.0537	156.468	-34.4297	25.4608	183.331	-24.6657	27.9983	209.885	-46.5177	7.10459	228.199	-38.6265	23.9929	219.813	-15.5979	0.120652	
357	2.975	213.949	10.4506	8.45854	202.645	19.9454	-5.88889	194.633	25.3981	-30.2661	188.057	30.5055	-44.2193	164.218	-14.2978	-28.1279	144.508	-4.86365	-8.62006	161.954	0.243506	10.5699	160.16	-29.4019	-17.5297	141.367	-19.5301	5.06132	167.58	-11.191	22.3892	160.387	-45.4202	0.917376	150.91	-24.0638	18.2077	176.284	-15.6806	26.9724	166.181	-52.2752	11.3361	157.031	-33.3951	24.0753	179.511	-21.6397	28.1456	209.39	-45.7203	3.80107	229.91	-33.9348	23.8549	221.569	-20.545	0.875575	
358	2.98333	214.975	13.1771	9.22285	202.614	22.621	-8.58673	194.246	26.8878	-28.0103	190.282	35.6051	-40.668	164.935	-12.7593	-28.861	142.935	-9.32017	-11.5188	164.96	0.305316	9.29726	160.564	-29.3039	-18.2847	140.309	-20.8588	3.3507	165.991	-6.63298	19.2067	160.862	-40.8158	-2.70218	150.811	-22.9988	18.535	176.629	-14.9892	25.8751	164.727	-54.4762	14.2393	156.859	-31.1284	25.9417	182.151	-21.6886	26.4585	208.625	-45.8932	4.15367	227.881	-34.391	25.5263	221.834	-15.4689	2.0582	
359	2.99167	216.429	14.1757	13.5465	201.765	19.5554	-6.68878	195.075	29.223	-25.1697	190.422	37.9887	-40.0898	166.353	-13.1275	-28.9396	143.261	-3.16355	-10.0637	162.804	-0.272462	9.84638	159.743	-31.5361	-15.0752	140.546	-19.9637	3.44337	167.238	-4.56157	19.0905	156.881	-41.7082	0.885382	149.62	-22.1135	19.6126	174.343	-12.0454	25.2645	161.513	-48.5996	14.0325	155.252	-30.7735	23.9373	179.413	-20.107	32.1473	209.215	-41.7664	9.46775	228.385	-34.8023	24.1533	221.751	-16.4058	3.06306	
